<mxfile host="app.diagrams.net" modified="2022-05-12T07:35:12.012Z" agent="5.0 (Windows NT 10.0; Win64; x64) AppleWebKit/537.36 (KHTML, like Gecko) Chrome/101.0.4951.64 Safari/537.36" etag="7EvxZVHmqrduv1-zxObV" version="18.0.3" type="github">
  <diagram id="kgpKYQtTHZ0yAKxKKP6v" name="Page-1">
    <mxGraphModel dx="1422" dy="1894" grid="1" gridSize="10" guides="1" tooltips="1" connect="1" arrows="1" fold="1" page="1" pageScale="1" pageWidth="850" pageHeight="1100" math="0" shadow="0">
      <root>
        <mxCell id="0" />
        <mxCell id="1" parent="0" />
        <mxCell id="3nuBFxr9cyL0pnOWT2aG-1" value="analyst : FinancialAnalyst" style="shape=umlLifeline;perimeter=lifelinePerimeter;container=1;collapsible=0;recursiveResize=0;rounded=0;shadow=0;strokeWidth=1;" parent="1" vertex="1">
          <mxGeometry x="123" y="-440" width="150" height="300" as="geometry" />
        </mxCell>
        <mxCell id="3nuBFxr9cyL0pnOWT2aG-2" value="" style="points=[];perimeter=orthogonalPerimeter;rounded=0;shadow=0;strokeWidth=1;" parent="3nuBFxr9cyL0pnOWT2aG-1" vertex="1">
          <mxGeometry x="70" y="70" width="10" height="190" as="geometry" />
        </mxCell>
        <mxCell id="3nuBFxr9cyL0pnOWT2aG-5" value="system : ReportingSystem" style="shape=umlLifeline;perimeter=lifelinePerimeter;container=1;collapsible=0;recursiveResize=0;rounded=0;shadow=0;strokeWidth=1;" parent="1" vertex="1">
          <mxGeometry x="344" y="-440" width="149" height="300" as="geometry" />
        </mxCell>
        <mxCell id="3nuBFxr9cyL0pnOWT2aG-6" value="" style="points=[];perimeter=orthogonalPerimeter;rounded=0;shadow=0;strokeWidth=1;" parent="3nuBFxr9cyL0pnOWT2aG-5" vertex="1">
          <mxGeometry x="69" y="80" width="10" height="160" as="geometry" />
        </mxCell>
        <mxCell id="3nuBFxr9cyL0pnOWT2aG-7" value="availlableReports" style="verticalAlign=bottom;endArrow=open;dashed=1;endSize=8;exitX=0;exitY=0.95;shadow=0;strokeWidth=1;" parent="1" source="3nuBFxr9cyL0pnOWT2aG-6" edge="1">
          <mxGeometry relative="1" as="geometry">
            <mxPoint x="204" y="-208.00000000000023" as="targetPoint" />
          </mxGeometry>
        </mxCell>
        <mxCell id="3nuBFxr9cyL0pnOWT2aG-8" value="getAvailabelReports" style="verticalAlign=bottom;endArrow=block;entryX=0;entryY=0;shadow=0;strokeWidth=1;" parent="1" target="3nuBFxr9cyL0pnOWT2aG-6" edge="1">
          <mxGeometry relative="1" as="geometry">
            <mxPoint x="204" y="-360" as="sourcePoint" />
          </mxGeometry>
        </mxCell>
        <mxCell id="3nuBFxr9cyL0pnOWT2aG-10" value="usrClearance" style="verticalAlign=bottom;endArrow=open;dashed=1;endSize=8;shadow=0;strokeWidth=1;exitX=-0.1;exitY=0.963;exitDx=0;exitDy=0;exitPerimeter=0;" parent="1" source="m5hxuh_p9RbYXUV5SAYv-16" edge="1">
          <mxGeometry relative="1" as="geometry">
            <mxPoint x="424" y="-244" as="targetPoint" />
            <mxPoint x="633" y="-244" as="sourcePoint" />
          </mxGeometry>
        </mxCell>
        <mxCell id="m5hxuh_p9RbYXUV5SAYv-2" value="&lt;h4 style=&quot;text-align: justify;&quot;&gt;&lt;font style=&quot;font-size: 18px;&quot;&gt;LIFELINE&lt;/font&gt;&lt;/h4&gt;&lt;span style=&quot;color: rgb(22, 22, 22); font-family: &amp;quot;IBM Plex Sans&amp;quot;, &amp;quot;Helvetica Neue&amp;quot;, Arial, sans-serif; font-size: 16px; background-color: rgb(255, 255, 255);&quot;&gt;&lt;div style=&quot;text-align: justify;&quot;&gt;Lifelines represent either roles or object instances that participate in the sequence being modeled.&amp;nbsp;&lt;/div&gt;&lt;/span&gt;&lt;span style=&quot;color: rgb(22, 22, 22); font-family: &amp;quot;IBM Plex Sans&amp;quot;, &amp;quot;Helvetica Neue&amp;quot;, Arial, sans-serif; font-size: 16px; background-color: rgb(255, 255, 255);&quot;&gt;&lt;div style=&quot;text-align: justify;&quot;&gt;Lifelines are drawn as a box with a dashed line descending from the center of the bottom edge.&lt;/div&gt;&lt;/span&gt;&lt;span style=&quot;color: rgb(22, 22, 22); font-family: &amp;quot;IBM Plex Sans&amp;quot;, &amp;quot;Helvetica Neue&amp;quot;, Arial, sans-serif; font-size: 16px; background-color: rgb(255, 255, 255);&quot;&gt;&lt;div style=&quot;text-align: justify;&quot;&gt;The lifeline&#39;s name is placed inside the box.&lt;/div&gt;&lt;/span&gt;&lt;span style=&quot;background-color: rgb(255, 255, 255);&quot;&gt;&lt;div style=&quot;text-align: justify;&quot;&gt;&lt;span style=&quot;font-size: 16px; color: rgb(22, 22, 22); font-family: &amp;quot;IBM Plex Sans&amp;quot;, &amp;quot;Helvetica Neue&amp;quot;, Arial, sans-serif;&quot;&gt;The UML standard for naming a lifeline follows the format of : Instance Name : ClassName&lt;/span&gt;&lt;/div&gt;&lt;font face=&quot;IBM Plex Sans, Helvetica Neue, Arial, sans-serif&quot; color=&quot;#161616&quot;&gt;&lt;div style=&quot;text-align: justify;&quot;&gt;&lt;span style=&quot;font-size: 16px;&quot;&gt;Not all lifelines represent named objects. Instead a lifeline can be used to represent an anonymous or unnamed instance. When modeling an unnamed instance on a sequence diagram, the lifeline&#39;s name follows the same pattern as a named instance; but instead of providing an instance name, that portion of the lifeline&#39;s name is left blank&lt;/span&gt;&lt;/div&gt;&lt;/font&gt;&lt;div style=&quot;text-align: justify;&quot;&gt;&lt;br&gt;&lt;/div&gt;&lt;/span&gt;&lt;span style=&quot;background-color: rgb(244, 244, 244); letter-spacing: 0.32px;&quot;&gt;&lt;div style=&quot;text-align: justify;&quot;&gt;&lt;font face=&quot;IBM Plex Mono, Menlo, DejaVu Sans Mono, Bitstream Vera Sans Mono, Courier, monospace&quot; color=&quot;#161616&quot;&gt;&lt;br&gt;&lt;/font&gt;&lt;/div&gt;&lt;/span&gt;" style="text;html=1;strokeColor=none;fillColor=none;spacing=5;spacingTop=-20;whiteSpace=wrap;overflow=hidden;rounded=0;fontSize=18;" vertex="1" parent="1">
          <mxGeometry x="10" y="-1040" width="830" height="230" as="geometry" />
        </mxCell>
        <mxCell id="m5hxuh_p9RbYXUV5SAYv-3" value="Freshman : Student" style="shape=umlLifeline;perimeter=lifelinePerimeter;container=1;collapsible=0;recursiveResize=0;rounded=0;shadow=0;strokeWidth=1;" vertex="1" parent="1">
          <mxGeometry x="40" y="-790" width="140" height="200" as="geometry" />
        </mxCell>
        <mxCell id="m5hxuh_p9RbYXUV5SAYv-7" value="Student" style="shape=umlLifeline;perimeter=lifelinePerimeter;container=1;collapsible=0;recursiveResize=0;rounded=0;shadow=0;strokeWidth=1;" vertex="1" parent="1">
          <mxGeometry x="240" y="-790" width="80" height="200" as="geometry" />
        </mxCell>
        <mxCell id="m5hxuh_p9RbYXUV5SAYv-8" value="&lt;h4 style=&quot;text-align: justify;&quot;&gt;&lt;font style=&quot;font-size: 18px;&quot;&gt;MESSAGES&lt;/font&gt;&lt;/h4&gt;&lt;span style=&quot;color: rgb(22, 22, 22); font-family: &amp;quot;IBM Plex Sans&amp;quot;, &amp;quot;Helvetica Neue&amp;quot;, Arial, sans-serif; font-size: 16px; background-color: rgb(255, 255, 255);&quot;&gt;&lt;div style=&quot;text-align: justify;&quot;&gt;&lt;span style=&quot;text-align: start;&quot;&gt;To show an object (i.e., lifeline) sending a message to another object, you draw a line to the receiving object with a solid arrowhead (if a synchronous call operation) or with a stick arrowhead (if an asynchronous signal). The message/method name is placed above the arrowed line. The message that is being sent to the receiving object represents an operation/method that the receiving object&#39;s class implements.&amp;nbsp;&lt;/span&gt;&lt;br&gt;&lt;/div&gt;&lt;/span&gt;&lt;span style=&quot;background-color: rgb(255, 255, 255);&quot;&gt;&lt;div style=&quot;text-align: justify;&quot;&gt;&lt;br&gt;&lt;/div&gt;&lt;/span&gt;&lt;span style=&quot;background-color: rgb(244, 244, 244); letter-spacing: 0.32px;&quot;&gt;&lt;div style=&quot;text-align: justify;&quot;&gt;&lt;font face=&quot;IBM Plex Mono, Menlo, DejaVu Sans Mono, Bitstream Vera Sans Mono, Courier, monospace&quot; color=&quot;#161616&quot;&gt;&lt;br&gt;&lt;/font&gt;&lt;/div&gt;&lt;/span&gt;" style="text;html=1;strokeColor=none;fillColor=none;spacing=5;spacingTop=-20;whiteSpace=wrap;overflow=hidden;rounded=0;fontSize=18;" vertex="1" parent="1">
          <mxGeometry x="10" y="-590" width="830" height="130" as="geometry" />
        </mxCell>
        <mxCell id="m5hxuh_p9RbYXUV5SAYv-11" value="secSystem : SecuritySystem" style="shape=umlLifeline;perimeter=lifelinePerimeter;container=1;collapsible=0;recursiveResize=0;rounded=0;shadow=0;strokeWidth=1;" vertex="1" parent="1">
          <mxGeometry x="568" y="-440" width="180" height="300" as="geometry" />
        </mxCell>
        <mxCell id="m5hxuh_p9RbYXUV5SAYv-16" value="" style="points=[];perimeter=orthogonalPerimeter;rounded=0;shadow=0;strokeWidth=1;" vertex="1" parent="m5hxuh_p9RbYXUV5SAYv-11">
          <mxGeometry x="85" y="120" width="10" height="80" as="geometry" />
        </mxCell>
        <mxCell id="m5hxuh_p9RbYXUV5SAYv-14" value="getSecurityClearance(userid)" style="verticalAlign=bottom;endArrow=block;entryX=0;entryY=0;shadow=0;strokeWidth=1;exitX=1;exitY=0.25;exitDx=0;exitDy=0;exitPerimeter=0;" edge="1" parent="1" source="3nuBFxr9cyL0pnOWT2aG-6">
          <mxGeometry relative="1" as="geometry">
            <mxPoint x="433" y="-320" as="sourcePoint" />
            <mxPoint x="652" y="-320" as="targetPoint" />
          </mxGeometry>
        </mxCell>
        <mxCell id="m5hxuh_p9RbYXUV5SAYv-17" value="&lt;h4 style=&quot;text-align: justify;&quot;&gt;&lt;font style=&quot;font-size: 18px;&quot;&gt;MESSAGES (cont)&lt;/font&gt;&lt;/h4&gt;&lt;span style=&quot;background-color: rgb(255, 255, 255);&quot;&gt;&lt;div style=&quot;text-align: start;&quot;&gt;&lt;font face=&quot;IBM Plex Sans, Helvetica Neue, Arial, sans-serif&quot; color=&quot;#161616&quot;&gt;&lt;span style=&quot;font-size: 16px;&quot;&gt;When modeling a sequence diagram, there will be times that an object will need to send a message to itself.&lt;/span&gt;&lt;/font&gt;&lt;br&gt;&lt;/div&gt;&lt;/span&gt;&lt;span style=&quot;background-color: rgb(255, 255, 255);&quot;&gt;&lt;div style=&quot;text-align: justify;&quot;&gt;&lt;span style=&quot;color: rgb(22, 22, 22); font-family: &amp;quot;IBM Plex Sans&amp;quot;, &amp;quot;Helvetica Neue&amp;quot;, Arial, sans-serif; font-size: 16px; text-align: start;&quot;&gt;To draw an object calling itself, you draw a message as you would normally, but instead of connecting it to another object, you connect the message back to the object itself.&lt;/span&gt;&lt;br&gt;&lt;/div&gt;&lt;/span&gt;" style="text;html=1;strokeColor=none;fillColor=none;spacing=5;spacingTop=-20;whiteSpace=wrap;overflow=hidden;rounded=0;fontSize=18;" vertex="1" parent="1">
          <mxGeometry y="-120" width="830" height="140" as="geometry" />
        </mxCell>
        <mxCell id="m5hxuh_p9RbYXUV5SAYv-19" value="analyst : FinancialAnalyst" style="shape=umlLifeline;perimeter=lifelinePerimeter;container=1;collapsible=0;recursiveResize=0;rounded=0;shadow=0;strokeWidth=1;" vertex="1" parent="1">
          <mxGeometry x="40" y="40" width="150" height="300" as="geometry" />
        </mxCell>
        <mxCell id="m5hxuh_p9RbYXUV5SAYv-20" value="" style="points=[];perimeter=orthogonalPerimeter;rounded=0;shadow=0;strokeWidth=1;" vertex="1" parent="m5hxuh_p9RbYXUV5SAYv-19">
          <mxGeometry x="70" y="70" width="10" height="190" as="geometry" />
        </mxCell>
        <mxCell id="m5hxuh_p9RbYXUV5SAYv-21" value="system : ReportingSystem" style="shape=umlLifeline;perimeter=lifelinePerimeter;container=1;collapsible=0;recursiveResize=0;rounded=0;shadow=0;strokeWidth=1;" vertex="1" parent="1">
          <mxGeometry x="261" y="40" width="149" height="300" as="geometry" />
        </mxCell>
        <mxCell id="m5hxuh_p9RbYXUV5SAYv-22" value="" style="points=[];perimeter=orthogonalPerimeter;rounded=0;shadow=0;strokeWidth=1;" vertex="1" parent="m5hxuh_p9RbYXUV5SAYv-21">
          <mxGeometry x="69" y="80" width="10" height="160" as="geometry" />
        </mxCell>
        <mxCell id="m5hxuh_p9RbYXUV5SAYv-29" value="" style="html=1;points=[];perimeter=orthogonalPerimeter;fontSize=18;" vertex="1" parent="m5hxuh_p9RbYXUV5SAYv-21">
          <mxGeometry x="75" y="194" width="10" height="40" as="geometry" />
        </mxCell>
        <mxCell id="m5hxuh_p9RbYXUV5SAYv-30" value="&lt;font style=&quot;font-size: 11px;&quot;&gt;determineAvailableReport()&lt;/font&gt;" style="edgeStyle=orthogonalEdgeStyle;html=1;align=left;spacingLeft=2;endArrow=block;rounded=0;entryX=1;entryY=0;fontSize=18;" edge="1" target="m5hxuh_p9RbYXUV5SAYv-29" parent="m5hxuh_p9RbYXUV5SAYv-21">
          <mxGeometry relative="1" as="geometry">
            <mxPoint x="80" y="180" as="sourcePoint" />
            <Array as="points">
              <mxPoint x="114" y="180" />
              <mxPoint x="114" y="194" />
            </Array>
          </mxGeometry>
        </mxCell>
        <mxCell id="m5hxuh_p9RbYXUV5SAYv-23" value="availlableReports" style="verticalAlign=bottom;endArrow=open;dashed=1;endSize=8;exitX=0;exitY=0.95;shadow=0;strokeWidth=1;" edge="1" parent="1" source="m5hxuh_p9RbYXUV5SAYv-22">
          <mxGeometry relative="1" as="geometry">
            <mxPoint x="121" y="271.9999999999998" as="targetPoint" />
          </mxGeometry>
        </mxCell>
        <mxCell id="m5hxuh_p9RbYXUV5SAYv-24" value="getAvailabelReports" style="verticalAlign=bottom;endArrow=block;entryX=0;entryY=0;shadow=0;strokeWidth=1;" edge="1" parent="1" target="m5hxuh_p9RbYXUV5SAYv-22">
          <mxGeometry relative="1" as="geometry">
            <mxPoint x="121" y="120" as="sourcePoint" />
          </mxGeometry>
        </mxCell>
        <mxCell id="m5hxuh_p9RbYXUV5SAYv-25" value="usrClearance" style="verticalAlign=bottom;endArrow=open;dashed=1;endSize=8;shadow=0;strokeWidth=1;exitX=-0.1;exitY=0.963;exitDx=0;exitDy=0;exitPerimeter=0;" edge="1" parent="1">
          <mxGeometry relative="1" as="geometry">
            <mxPoint x="341" y="200" as="targetPoint" />
            <mxPoint x="569" y="201.03999999999996" as="sourcePoint" />
          </mxGeometry>
        </mxCell>
        <mxCell id="m5hxuh_p9RbYXUV5SAYv-26" value="secSystem : SecuritySystem" style="shape=umlLifeline;perimeter=lifelinePerimeter;container=1;collapsible=0;recursiveResize=0;rounded=0;shadow=0;strokeWidth=1;" vertex="1" parent="1">
          <mxGeometry x="485" y="40" width="180" height="300" as="geometry" />
        </mxCell>
        <mxCell id="m5hxuh_p9RbYXUV5SAYv-27" value="" style="points=[];perimeter=orthogonalPerimeter;rounded=0;shadow=0;strokeWidth=1;" vertex="1" parent="m5hxuh_p9RbYXUV5SAYv-26">
          <mxGeometry x="85" y="120" width="10" height="40" as="geometry" />
        </mxCell>
        <mxCell id="m5hxuh_p9RbYXUV5SAYv-28" value="getSecurityClearance(userid)" style="verticalAlign=bottom;endArrow=block;entryX=0;entryY=0;shadow=0;strokeWidth=1;exitX=1;exitY=0.25;exitDx=0;exitDy=0;exitPerimeter=0;" edge="1" parent="1" source="m5hxuh_p9RbYXUV5SAYv-22">
          <mxGeometry relative="1" as="geometry">
            <mxPoint x="350" y="160" as="sourcePoint" />
            <mxPoint x="569" y="160" as="targetPoint" />
          </mxGeometry>
        </mxCell>
      </root>
    </mxGraphModel>
  </diagram>
</mxfile>
